<svg width="18" height="12" viewBox="0 0 18 12" fill="none" xmlns="http://www.w3.org/2000/svg">
<path d="M14.95 1.5L13.5 4C14.6 4 15.5417 4.39167 16.325 5.175C17.1083 5.95833 17.5 6.9 17.5 8C17.5 9.1 17.1083 10.0417 16.325 10.825C15.5417 11.6083 14.6 12 13.5 12C12.4 12 11.4583 11.6083 10.675 10.825C9.89167 10.0417 9.5 9.1 9.5 8C9.5 7.61667 9.54567 7.26233 9.637 6.937C9.72833 6.61167 9.866 6.29933 10.05 6L13.225 0.5C13.3083 0.35 13.425 0.228999 13.575 0.136999C13.725 0.0449988 13.8917 -0.000666934 14.075 -2.99423e-07C14.4583 -2.65911e-07 14.7457 0.166667 14.937 0.5C15.1283 0.833333 15.1327 1.16667 14.95 1.5ZM5.95 1.5L4.5 4C5.6 4 6.54167 4.39167 7.325 5.175C8.10833 5.95833 8.5 6.9 8.5 8C8.5 9.1 8.10833 10.0417 7.325 10.825C6.54167 11.6083 5.6 12 4.5 12C3.4 12 2.45833 11.6083 1.675 10.825C0.891667 10.0417 0.5 9.1 0.5 8C0.5 7.61667 0.545666 7.26233 0.637 6.937C0.728333 6.61167 0.866 6.29933 1.05 6L4.225 0.499999C4.30833 0.349999 4.425 0.228998 4.575 0.136998C4.725 0.044998 4.89167 -0.000667721 5.075 -1.08623e-06C5.45834 -1.05272e-06 5.74567 0.166666 5.937 0.499999C6.12834 0.833332 6.13267 1.16667 5.95 1.5Z" fill="white"/>
</svg>
