<svg width="19" height="19" viewBox="0 0 19 19" fill="none" xmlns="http://www.w3.org/2000/svg">
<path d="M7.19727 13.5C5.3806 13.5 3.84327 12.8707 2.58527 11.612C1.32727 10.3533 0.697933 8.816 0.697266 7C0.696599 5.184 1.32593 3.64667 2.58527 2.388C3.8446 1.12933 5.38193 0.5 7.19727 0.5C9.0126 0.5 10.5503 1.12933 11.8103 2.388C13.0703 3.64667 13.6993 5.184 13.6973 7C13.6973 7.73333 13.5806 8.425 13.3473 9.075C13.1139 9.725 12.7973 10.3 12.3973 10.8L17.9973 16.4C18.1806 16.5833 18.2723 16.8167 18.2723 17.1C18.2723 17.3833 18.1806 17.6167 17.9973 17.8C17.8139 17.9833 17.5806 18.075 17.2973 18.075C17.0139 18.075 16.7806 17.9833 16.5973 17.8L10.9973 12.2C10.4973 12.6 9.92227 12.9167 9.27227 13.15C8.62227 13.3833 7.9306 13.5 7.19727 13.5ZM7.19727 11.5C8.44727 11.5 9.50993 11.0627 10.3853 10.188C11.2606 9.31333 11.6979 8.25067 11.6973 7C11.6966 5.74933 11.2593 4.687 10.3853 3.813C9.51127 2.939 8.4486 2.50133 7.19727 2.5C5.94593 2.49867 4.8836 2.93633 4.01027 3.813C3.13693 4.68967 2.69927 5.752 2.69727 7C2.69527 8.248 3.13293 9.31067 4.01027 10.188C4.8876 11.0653 5.94993 11.5027 7.19727 11.5Z" fill="black" fill-opacity="0.5"/>
</svg>
